<?xml version="1.0" standalone="no"?><!DOCTYPE svg PUBLIC "-//W3C//DTD SVG 1.1//EN" "http://www.w3.org/Graphics/SVG/1.1/DTD/svg11.dtd"><svg t="1663720464047" class="icon" viewBox="0 0 1024 1024" version="1.1" xmlns="http://www.w3.org/2000/svg" p-id="15352" xmlns:xlink="http://www.w3.org/1999/xlink" width="200" height="200"><path d="M512 62a225 225 0 0 1 225 225v105.84a223.98000029 223.98000029 0 0 1-41.24999971 129.89999971l52.40999971 20.10000058A240.00000029 240.00000029 0 0 1 901.99999971 766.81999971V872a90 90 0 0 1-90 90H212.00000029a90 90 0 0 1-90-90v-105.18000029a240.00000029 240.00000029 0 0 1 153.83999971-223.97999942l52.38-20.16A223.98000029 223.98000029 0 0 1 287 392.84V287A225 225 0 0 1 512 62zM372.97999971 569.78l-75.6 29.04000029A180 180 0 0 0 181.99999971 766.81999971V872a29.99999971 29.99999971 0 0 0 30.00000058 29.99999971h599.99999942a29.99999971 29.99999971 0 0 0 30.00000058-29.99999971v-105.18000029a180 180 0 0 0-115.38-167.99999942l-74.82000058-28.77000029c-3.6 2.45999971-7.17000029 4.83000029-10.73999971 7.11A223.92 223.92 0 0 1 512 617.84a224.03999971 224.03999971 0 0 1-139.02000029-48.06zM512 122.00000029a164.99999971 164.99999971 0 0 0-164.99999971 164.99999971v105.84c0 51.90000029 24.00000029 98.25000029 61.49999971 128.49000029 34.31999971 23.87999971 68.85 35.84999971 103.5 35.91 31.86 0.02999971 63.78000029-9.96000029 95.78999971-30.00000058a164.81999971 164.81999971 0 0 0 69.21-134.39999971V287A164.99999971 164.99999971 0 0 0 512 122.00000029z m-81.20999971 299.99999971a29.99999971 29.99999971 0 0 1 42.41999971 0 52.49999971 52.49999971 0 0 0 74.22000029 0 29.99999971 29.99999971 0 1 1 42.41999971 42.45000029 112.5 112.5 0 0 1-159.05999971 0 29.99999971 29.99999971 0 0 1 0-42.45000029z" fill="#ffffff" p-id="15353"></path></svg>