<?xml version="1.0" encoding="utf-8"?>
<!-- Generator: Adobe Illustrator 25.0.1, SVG Export Plug-In . SVG Version: 6.00 Build 0)  -->
<svg version="1.1" id="Layer_1" xmlns="http://www.w3.org/2000/svg" xmlns:xlink="http://www.w3.org/1999/xlink" x="0px" y="0px"
	 viewBox="0 0 200 200" style="enable-background:new 0 0 200 200;" xml:space="preserve">
<style type="text/css">
	.st0{fill:#FFFFFF;}
</style>
<g>
	<path class="st0" d="M30.5,142h33.3c1.8,0,3.3-1.5,3.3-3.3c0-1.8-1.5-3.3-3.3-3.3c0,0,0,0,0,0H30.5c-1.8,0-3.3,1.5-3.3,3.3
		C27.1,140.5,28.6,142,30.5,142C30.5,142,30.5,142,30.5,142z"/>
	<path class="st0" d="M77.1,142h3.3c1.8,0,3.3-1.5,3.3-3.3c0-1.8-1.5-3.3-3.3-3.3c0,0,0,0,0,0h-3.3c-1.8,0-3.3,1.5-3.3,3.3
		C73.8,140.5,75.3,142,77.1,142C77.1,142,77.1,142,77.1,142z"/>
	<path class="st0" d="M185.9,26.7H14.1C6.3,26.7,0,33,0,40.7v118.6c0,7.8,6.3,14,14.1,14.1h171.9c7.8,0,14-6.3,14.1-14.1V40.7
		C200,33,193.7,26.7,185.9,26.7z M6.7,59.3c0.1,0,0.2,0,0.3,0c0,0,0,0,0,0h186.1c0.1,0,0.2,0,0.3,0v20.2c-0.1,0-0.2,0-0.3,0
		c0,0,0,0,0,0H6.9c-0.1,0-0.2,0-0.3,0V59.3z M14.1,33.3h171.9c4.1,0,7.4,3.3,7.4,7.4v12c-0.1,0-0.2,0-0.3,0c0,0,0,0,0,0H6.9
		c-0.1,0-0.2,0-0.3,0v-12C6.7,36.6,10,33.3,14.1,33.3z M185.9,166.7H14.1c-4.1,0-7.4-3.3-7.4-7.4V86.1c0.1,0,0.2,0,0.3,0
		c0,0,0,0,0,0h186.1c0.1,0,0.2,0,0.3,0v73.1C193.3,163.4,190,166.7,185.9,166.7z"/>
</g>
</svg>
