<?xml version="1.0" standalone="no"?><!DOCTYPE svg PUBLIC "-//W3C//DTD SVG 1.1//EN" "http://www.w3.org/Graphics/SVG/1.1/DTD/svg11.dtd"><svg t="1663717903439" class="icon" viewBox="0 0 1024 1024" version="1.1" xmlns="http://www.w3.org/2000/svg" p-id="3827" xmlns:xlink="http://www.w3.org/1999/xlink" width="200" height="200"><path d="M952.029867 136.533333H71.970133A72.055467 72.055467 0 0 0 0 208.503467v606.993066A72.055467 72.055467 0 0 0 71.970133 887.466667h880.059734A72.055467 72.055467 0 0 0 1024 815.496533V208.503467A72.055467 72.055467 0 0 0 952.029867 136.533333zM989.866667 815.496533A37.870933 37.870933 0 0 1 952.029867 853.333333H71.970133A37.870933 37.870933 0 0 1 34.133333 815.496533V208.503467C34.133333 187.630933 51.0976 170.666667 71.970133 170.666667h880.059734c20.872533 0 37.8368 16.964267 37.8368 37.8368v606.993066z" fill="#ffffff" p-id="3828"></path><path d="M386.3552 618.5984L324.266667 586.888533v-6.6048c27.784533-15.172267 47.325867-40.157867 58.231466-74.478933A50.7904 50.7904 0 0 0 409.6 460.8v-17.066667c0-15.803733-7.355733-30.464-19.643733-40.0896-10.6496-64.512-55.671467-97.211733-133.956267-97.211733-3.703467 0-7.3216 0.136533-10.8544 0.4096-14.7456 1.211733-36.334933-0.068267-55.022933-12.629333-6.980267-4.7104-12.253867-9.284267-15.616-13.533867a20.343467 20.343467 0 0 0-23.927467-6.365867 20.258133 20.258133 0 0 0-12.526933 21.282134c0.7168 6.382933 1.792 13.806933 3.413333 21.947733 3.293867 16.64 3.293867 16.64-1.3312 26.589867-1.7408 3.771733-3.8912 8.362667-6.417067 14.557866a190.583467 190.583467 0 0 0-11.963733 45.175467A50.944 50.944 0 0 0 102.4 443.733333v17.066667c0 19.1488 10.564267 36.232533 27.101867 45.0048 10.9056 34.338133 30.446933 59.323733 58.231466 74.478933v6.417067l-64.324266 31.709867A72.994133 72.994133 0 0 0 85.333333 682.5472v22.613333C85.333333 718.865067 85.333333 750.933333 256 750.933333s170.666667-32.068267 170.666667-45.7728v-21.248a72.669867 72.669867 0 0 0-40.311467-65.314133zM392.533333 701.303467c-10.6496 6.485333-53.9648 15.496533-136.533333 15.496533s-125.883733-9.0112-136.533333-15.496533v-18.756267c0-14.250667 7.765333-27.357867 19.6608-33.826133l65.826133-32.443734c10.274133-5.0176 16.896-15.650133 16.896-27.101866v-30.7712l-10.308267-4.437334c-25.890133-11.1616-42.717867-32.443733-51.456-65.092266l-2.440533-9.096534-8.977067-2.798933A17.237333 17.237333 0 0 1 136.533333 460.8v-17.066667c0-6.178133 3.5328-11.912533 9.233067-14.9504l8.004267-4.266666 0.938666-9.028267a160.256 160.256 0 0 1 10.615467-43.861333c2.269867-5.546667 4.1984-9.693867 5.768533-13.090134 5.7856-12.424533 7.8848-18.8416 6.434134-32 20.0704 11.4688 44.1856 16.349867 70.3488 14.353067a97.450667 97.450667 0 0 1 8.1408-0.324267c63.8976 0 95.095467 23.1424 101.188266 75.0592l1.058134 8.9088 7.936 4.1984c5.700267 3.037867 9.2672 8.789333 9.2672 15.0016v17.066667c0 7.304533-5.000533 13.943467-12.151467 16.162133l-8.977067 2.798934-2.440533 9.096533c-8.738133 32.648533-25.565867 53.930667-51.456 65.092267l-10.308267 4.4544v30.907733c0 11.4176 6.314667 21.7088 16.452267 26.88l64.426667 32.9216A38.673067 38.673067 0 0 1 392.533333 683.912533v17.390934zM512 392.533333h170.666667a17.066667 17.066667 0 1 0 0-34.133333H512a17.066667 17.066667 0 1 0 0 34.133333zM750.933333 392.533333h17.066667a17.066667 17.066667 0 1 0 0-34.133333h-17.066667a17.066667 17.066667 0 1 0 0 34.133333zM529.066667 648.533333h-17.066667a17.066667 17.066667 0 1 0 0 34.133334h17.066667a17.066667 17.066667 0 1 0 0-34.133334zM631.466667 648.533333h-34.133334a17.066667 17.066667 0 1 0 0 34.133334h34.133334a17.066667 17.066667 0 1 0 0-34.133334zM716.8 648.533333h-17.066667a17.066667 17.066667 0 1 0 0 34.133334h17.066667a17.066667 17.066667 0 1 0 0-34.133334zM819.2 648.533333h-34.133333a17.066667 17.066667 0 1 0 0 34.133334h34.133333a17.066667 17.066667 0 1 0 0-34.133334zM875.349333 653.482667c-3.089067 3.2256-4.949333 7.68-4.949333 12.117333s1.860267 8.874667 4.949333 12.117333c3.2256 3.072 7.68 4.949333 12.117334 4.949334s8.874667-1.877333 12.117333-4.949334c3.072-3.242667 4.949333-7.68 4.949333-12.117333s-1.877333-8.891733-4.949333-12.117333c-6.485333-6.314667-17.92-6.314667-24.234667 0zM887.466667 460.8H512a17.066667 17.066667 0 1 0 0 34.133333h375.466667a17.066667 17.066667 0 1 0 0-34.133333zM887.466667 563.2H512a17.066667 17.066667 0 1 0 0 34.133333h375.466667a17.066667 17.066667 0 1 0 0-34.133333z" fill="#ffffff" p-id="3829"></path></svg>