<?xml version="1.0" encoding="utf-8"?>
<!-- Generator: Adobe Illustrator 25.0.1, SVG Export Plug-In . SVG Version: 6.00 Build 0)  -->
<svg version="1.1" id="Layer_1" xmlns="http://www.w3.org/2000/svg" xmlns:xlink="http://www.w3.org/1999/xlink" x="0px" y="0px"
	 viewBox="0 0 200 200" style="enable-background:new 0 0 200 200;" xml:space="preserve">
<style type="text/css">
	.st0{fill:#FFFFFF;}
</style>
<g>
	<path class="st0" d="M185.5,199.2C185.5,199.2,185.5,199.2,185.5,199.2C185.4,199.2,185.4,199.2,185.5,199.2L185.5,199.2z"/>
	<path class="st0" d="M189,194.3c-8.9-30.1-32.5-53.7-62.7-62.7c-2.6-0.8-5.2-1.4-7.8-1.9c27-8.2,46.6-33.4,46.4-63.1
		c0-0.3,0-0.7,0-1c-0.6-36.4-30.6-65.5-67-64.9s-65.5,30.6-64.9,67c0.5,29.6,20.3,54.3,47.3,62.2c-32.1,7-59.4,30.7-69.4,64.4
		c0,0,0,0.1,0,0.1c-0.6,2,0.6,4.1,2.6,4.7c2,0.6,4.1-0.6,4.7-2.6c8.2-27.9,30-49.8,57.9-57.9c45.2-13.2,92.5,12.8,105.7,57.9
		c0.5,1.6,1.9,2.7,3.6,2.7c0.4,0,0.7-0.1,1.1-0.2C188.5,198.5,189.7,196.3,189,194.3z M40.5,65.4c0.6-32.3,27.3-57.9,59.6-57.3
		c31.9,0.4,57.5,26.5,57.3,58.4c0,0.4,0,0.8,0,1.1C156.7,100,130,125.6,97.8,125C65.5,124.4,39.9,97.7,40.5,65.4z"/>
	<path class="st0" d="M129.5,90.8c0-6.9-9.7-8.2-29.7-8.4c-16.4-0.2-24,0.9-27.3,4.2c-1.2,1.1-1.8,2.6-1.8,4.3
		c0,19.7,15,26.7,29.1,26.7C113.5,117.5,129.4,110.5,129.5,90.8z M78.3,91.7L78.3,91.7c1.5-0.8,6.3-1.9,21.5-1.7
		c14.6,0.1,20.1,1.1,22,1.9c-0.7,16.7-16.9,18-22,18C93.4,109.9,78.8,108.2,78.3,91.7z"/>
</g>
</svg>
